<svg width="48" height="48" viewBox="0 0 48 48" fill="none" xmlns="http://www.w3.org/2000/svg">
<rect width="48" height="48" rx="24" fill="url(#paint0_linear_1939_2722)"/>
<path d="M38.652 12C39.5287 12.7447 39.8826 14.1797 39.9753 15.2877C40.1407 17.76 39.4642 19.9085 37.8762 21.8219C36.103 23.6926 34.1247 24.166 31.6435 24.2745C29.7594 24.3567 28.2244 24.6082 26.7738 25.8904C26.6547 26.0252 26.5339 26.1616 26.4115 26.3014C26.299 26.423 26.1866 26.5463 26.0708 26.6712C24.9559 28.2444 24.7905 29.8488 24.9228 31.726C25.2718 33.3896 26.2213 34.657 27.5694 35.6712C27.5694 35.7797 27.5694 35.8882 27.5694 36C25.3826 35.3951 23.6508 34.1622 22.4714 32.2142C21.4558 30.2827 21.0472 28.2592 21.6344 26.0959C22.3556 24.1052 23.5218 22.3677 25.4505 21.3699C26.4744 20.8981 27.4321 20.6696 28.5635 20.7041C28.8894 20.709 28.8894 20.709 29.2235 20.7156C29.5626 20.7238 29.9034 20.7321 30.2424 20.7436C32.5979 20.8159 34.7995 20.4033 36.624 18.8186C38.4866 16.8526 38.7082 14.5381 38.652 12Z" fill="#FAFCFD"/>
<path d="M11.1935 12.1641C11.1488 12.2693 11.1042 12.3745 11.0595 12.483C10.995 12.649 10.9288 12.815 10.8627 12.986C10.8197 13.0879 10.775 13.1898 10.7303 13.295C10.1282 14.8353 10.1613 16.461 10.7982 17.9865C11.4251 19.1405 12.224 20.0019 13.5093 20.3832C14.2305 20.518 14.9583 20.5904 15.6877 20.6676C17.1715 20.8484 18.4617 21.3827 19.4641 22.5202C20.5922 24.2594 20.9263 25.9147 20.5211 27.963C20.1539 29.0972 19.5121 29.9323 18.637 30.7394C18.5824 30.7394 18.5279 30.7394 18.4716 30.7394C18.4799 30.5569 18.4865 30.3745 18.4948 30.1854C18.5411 28.6205 18.5411 27.2495 17.5387 25.9493C17.3137 25.6435 17.1484 25.2326 16.983 25.0682C15.7903 24.4682 14.9996 24.3071 13.6747 24.0917C11.9792 23.809 10.4624 23.1926 9.4054 21.7953C8.19789 20.02 7.75459 18.2972 8.12842 16.1586C8.46255 14.901 9.61051 12.1641 11.1935 12.1641Z" fill="#FAFCFD"/>
<defs>
<linearGradient id="paint0_linear_1939_2722" x1="42.6" y1="39" x2="1.2517e-08" y2="1.2" gradientUnits="userSpaceOnUse">
<stop stop-color="#04203E"/>
<stop offset="1" stop-color="#0077FF"/>
</linearGradient>
</defs>
</svg>
