<svg width="18" height="18" viewBox="0 0 18 18" fill="none" xmlns="http://www.w3.org/2000/svg">
<path d="M9 1.125C4.65117 1.125 1.125 4.65117 1.125 9C1.125 13.3488 4.65117 16.875 9 16.875C13.3488 16.875 16.875 13.3488 16.875 9C16.875 4.65117 13.3488 1.125 9 1.125ZM9 15.5391C5.38945 15.5391 2.46094 12.6105 2.46094 9C2.46094 7.43555 3.01113 5.99766 3.92871 4.87266L13.1273 14.0713C12.0023 14.9889 10.5645 15.5391 9 15.5391ZM14.0713 13.1273L4.87266 3.92871C5.99766 3.01113 7.43555 2.46094 9 2.46094C12.6105 2.46094 15.5391 5.38945 15.5391 9C15.5391 10.5645 14.9889 12.0023 14.0713 13.1273Z" fill="#EF4444"/>
</svg>
