<svg width="22" height="22" viewBox="0 0 22 22" fill="none" xmlns="http://www.w3.org/2000/svg">
<g clip-path="url(#clip0_919_3187)">
<path d="M19.9842 9.16751C20.4029 11.222 20.1045 13.358 19.1389 15.2192C18.1733 17.0803 16.5989 18.5542 14.6781 19.3951C12.7573 20.2359 10.6064 20.3928 8.58391 19.8397C6.56144 19.2866 4.78973 18.0568 3.56422 16.3555C2.33872 14.6542 1.7335 12.5841 1.84949 10.4906C1.96549 8.39709 2.79569 6.40659 4.20165 4.85109C5.60761 3.29558 7.50434 2.26907 9.57553 1.94276C11.6467 1.61645 13.7672 2.01005 15.5833 3.05793" stroke="#10B981" stroke-width="1.83333" stroke-linecap="round" stroke-linejoin="round"/>
<path d="M8.25 10.0837L11 12.8337L20.1667 3.66699" stroke="#10B981" stroke-width="1.83333" stroke-linecap="round" stroke-linejoin="round"/>
</g>
<defs>
<clipPath id="clip0_919_3187">
<rect width="22" height="22" fill="white"/>
</clipPath>
</defs>
</svg>
