<svg width="28" height="28" viewBox="0 0 28 28" fill="none" xmlns="http://www.w3.org/2000/svg">
<path d="M0 14C0 6.26801 6.26801 0 14 0C21.732 0 28 6.26801 28 14C28 21.732 21.732 28 14 28C6.26801 28 0 21.732 0 14Z" fill="#FAFCFD"/>
<path d="M19.749 15.5C20.0445 15.5 20.3371 15.5582 20.61 15.6713C20.883 15.7843 21.1311 15.9501 21.34 16.159C21.5489 16.3679 21.7147 16.616 21.8277 16.889C21.9408 17.1619 21.999 17.4545 21.999 17.75V18.655C21.999 19.1954 21.8822 19.7294 21.6566 20.2204C21.431 20.7115 21.102 21.148 20.692 21.5C19.126 22.844 16.886 23.501 13.996 23.501C11.106 23.501 8.868 22.844 7.305 21.501C6.89552 21.1489 6.56692 20.7125 6.34169 20.2216C6.11646 19.7308 5.9999 19.1971 6 18.657V17.75C6 17.1533 6.23705 16.581 6.65901 16.159C7.08097 15.7371 7.65326 15.5 8.25 15.5H19.749Z" fill="url(#paint0_linear_1871_27070)"/>
<path d="M13.9958 4L13.8938 4.007C13.7142 4.03165 13.5497 4.12048 13.4305 4.25707C13.3114 4.39366 13.2458 4.56876 13.2458 4.75L13.2388 6.5H14.7388L14.7458 4.75L14.7388 4.648C14.7141 4.46845 14.6253 4.30389 14.4887 4.18477C14.3521 4.06564 14.177 4.00001 13.9958 4Z" fill="url(#paint1_linear_1871_27070)"/>
<path d="M19.9961 7.75C19.9961 7.15326 19.759 6.58097 19.3371 6.15901C18.9151 5.73705 18.3428 5.5 17.7461 5.5L10.2461 5.5C9.64936 5.5 9.07706 5.73705 8.6551 6.15901C8.23315 6.58097 7.99609 7.15326 7.99609 7.75V11.25C7.99609 11.8467 8.23315 12.419 8.6551 12.841C9.07706 13.2629 9.64936 13.5 10.2461 13.5H17.7461C18.3428 13.5 18.9151 13.2629 19.3371 12.841C19.759 12.419 19.9961 11.8467 19.9961 11.25V7.75Z" fill="url(#paint2_linear_1871_27070)"/>
<path d="M16.238 7.99952C16.0709 7.9948 15.9046 8.02362 15.7489 8.08429C15.5932 8.14495 15.4512 8.23623 15.3313 8.35273C15.2115 8.46922 15.1162 8.60857 15.0512 8.76251C14.9862 8.91646 14.9526 9.0819 14.9526 9.24902C14.9526 9.41615 14.9862 9.58158 15.0512 9.73553C15.1162 9.88948 15.2115 10.0288 15.3313 10.1453C15.4512 10.2618 15.5932 10.3531 15.7489 10.4138C15.9046 10.4744 16.0709 10.5032 16.238 10.4985C16.5633 10.4893 16.8721 10.3536 17.0989 10.1203C17.3257 9.887 17.4526 9.57442 17.4526 9.24902C17.4526 8.92362 17.3257 8.61105 17.0989 8.37773C16.8721 8.14441 16.5633 8.00873 16.238 7.99952Z" fill="#FAFCFD"/>
<path d="M11.7458 7.99952C11.5787 7.9948 11.4124 8.02362 11.2567 8.08429C11.101 8.14495 10.959 8.23623 10.8392 8.35273C10.7193 8.46922 10.6241 8.60857 10.559 8.76251C10.494 8.91646 10.4604 9.0819 10.4604 9.24902C10.4604 9.41615 10.494 9.58158 10.559 9.73553C10.6241 9.88948 10.7193 10.0288 10.8392 10.1453C10.959 10.2618 11.101 10.3531 11.2567 10.4138C11.4124 10.4744 11.5787 10.5032 11.7458 10.4985C12.0711 10.4893 12.3799 10.3536 12.6067 10.1203C12.8336 9.887 12.9604 9.57442 12.9604 9.24902C12.9604 8.92362 12.8336 8.61105 12.6067 8.37773C12.3799 8.14441 12.0711 8.00873 11.7458 7.99952Z" fill="#FAFCFD"/>
<defs>
<linearGradient id="paint0_linear_1871_27070" x1="13.9995" y1="15.5" x2="13.9995" y2="23.501" gradientUnits="userSpaceOnUse">
<stop stop-color="#04203E"/>
<stop offset="1" stop-color="#0B55A4"/>
</linearGradient>
<linearGradient id="paint1_linear_1871_27070" x1="13.9923" y1="4" x2="13.9923" y2="6.5" gradientUnits="userSpaceOnUse">
<stop stop-color="#04203E"/>
<stop offset="1" stop-color="#0B55A4"/>
</linearGradient>
<linearGradient id="paint2_linear_1871_27070" x1="13.9961" y1="5.5" x2="13.9961" y2="13.5" gradientUnits="userSpaceOnUse">
<stop stop-color="#04203E"/>
<stop offset="1" stop-color="#0B55A4"/>
</linearGradient>
</defs>
</svg>
