<svg width="16" height="16" viewBox="0 0 16 16" fill="none" xmlns="http://www.w3.org/2000/svg">
<g clip-path="url(#clip0_889_3646)">
<path d="M16 2.28634C16 1.93272 15.8595 1.59358 15.6095 1.34353C15.3594 1.09349 15.0203 0.953009 14.6667 0.953009H7.66C7.61574 0.724287 7.49145 0.518811 7.30942 0.373427C7.12739 0.228044 6.89951 0.152264 6.66667 0.159676H4.08C3.84864 0.159957 3.62494 0.242644 3.44901 0.392912C3.27309 0.54318 3.15645 0.7512 3.12 0.979676C3.11358 1.03282 3.11358 1.08654 3.12 1.13968V7.33301C3.11988 7.40168 3.14185 7.46857 3.18266 7.52379C3.22348 7.57902 3.28098 7.61965 3.34667 7.63968H3.44667C3.49758 7.64025 3.54786 7.6284 3.59316 7.60517C3.63846 7.58194 3.67742 7.54802 3.70667 7.50634L5.25333 5.45301C5.26815 5.43236 5.28766 5.41554 5.31027 5.40394C5.33288 5.39233 5.35792 5.38628 5.38333 5.38628C5.40874 5.38628 5.43379 5.39233 5.4564 5.40394C5.479 5.41554 5.49852 5.43236 5.51333 5.45301L7.08667 7.53968C7.12783 7.59381 7.18485 7.63374 7.2498 7.65391C7.31474 7.67408 7.38435 7.67349 7.44894 7.6522C7.51352 7.63092 7.56986 7.59001 7.61008 7.53518C7.65031 7.48035 7.67242 7.41434 7.67333 7.34634V2.45301C7.67333 2.40881 7.69089 2.36641 7.72215 2.33516C7.75341 2.3039 7.7958 2.28634 7.84 2.28634H14.36C14.4484 2.28634 14.5332 2.32146 14.5957 2.38397C14.6582 2.44649 14.6933 2.53127 14.6933 2.61968V14.3597C14.6933 14.4481 14.6582 14.5329 14.5957 14.5954C14.5332 14.6579 14.4484 14.693 14.36 14.693H1.64C1.55159 14.693 1.46681 14.6579 1.4043 14.5954C1.34179 14.5329 1.30667 14.4481 1.30667 14.3597V2.44634C1.30667 2.40391 1.32352 2.36321 1.35353 2.33321C1.38354 2.3032 1.42423 2.28634 1.46667 2.28634C1.64348 2.28634 1.81305 2.2161 1.93807 2.09108C2.0631 1.96606 2.13333 1.79649 2.13333 1.61968C2.13333 1.44287 2.0631 1.2733 1.93807 1.14827C1.81305 1.02325 1.64348 0.953009 1.46667 0.953009H1.33333C0.979711 0.953009 0.640573 1.09349 0.390524 1.34353C0.140476 1.59358 0 1.93272 0 2.28634L0 14.6663C0 15.02 0.140476 15.3591 0.390524 15.6091C0.640573 15.8592 0.979711 15.9997 1.33333 15.9997H14.6667C15.0203 15.9997 15.3594 15.8592 15.6095 15.6091C15.8595 15.3591 16 15.02 16 14.6663V2.28634Z" fill="#04203E"/>
<path d="M9.63309 5.0599H12.2464C12.4232 5.0599 12.5928 4.98966 12.7178 4.86463C12.8428 4.73961 12.9131 4.57004 12.9131 4.39323C12.9131 4.21642 12.8428 4.04685 12.7178 3.92182C12.5928 3.7968 12.4232 3.72656 12.2464 3.72656H9.63309C9.45627 3.72656 9.28671 3.7968 9.16168 3.92182C9.03666 4.04685 8.96642 4.21642 8.96642 4.39323C8.96642 4.57004 9.03666 4.73961 9.16168 4.86463C9.28671 4.98966 9.45627 5.0599 9.63309 5.0599ZM9.63309 7.67323H12.2464C12.4232 7.67323 12.5928 7.60299 12.7178 7.47797C12.8428 7.35294 12.9131 7.18337 12.9131 7.00656C12.9131 6.82975 12.8428 6.66018 12.7178 6.53516C12.5928 6.41013 12.4232 6.3399 12.2464 6.3399H9.63309C9.45627 6.3399 9.28671 6.41013 9.16168 6.53516C9.03666 6.66018 8.96642 6.82975 8.96642 7.00656C8.96642 7.18337 9.03666 7.35294 9.16168 7.47797C9.28671 7.60299 9.45627 7.67323 9.63309 7.67323ZM12.2464 8.9799H4.07975C3.90294 8.9799 3.73337 9.05013 3.60835 9.17516C3.48332 9.30018 3.41309 9.46975 3.41309 9.64656C3.41309 9.82337 3.48332 9.99294 3.60835 10.118C3.73337 10.243 3.90294 10.3132 4.07975 10.3132H12.2464C12.4232 10.3132 12.5928 10.243 12.7178 10.118C12.8428 9.99294 12.9131 9.82337 12.9131 9.64656C12.9131 9.46975 12.8428 9.30018 12.7178 9.17516C12.5928 9.05013 12.4232 8.9799 12.2464 8.9799ZM11.5931 12.2466C11.5931 12.0698 11.5228 11.9002 11.3978 11.7752C11.2728 11.6501 11.1032 11.5799 10.9264 11.5799H4.07975C3.90294 11.5799 3.73337 11.6501 3.60835 11.7752C3.48332 11.9002 3.41309 12.0698 3.41309 12.2466C3.41309 12.4234 3.48332 12.5929 3.60835 12.718C3.73337 12.843 3.90294 12.9132 4.07975 12.9132H10.9398C11.1142 12.9097 11.2804 12.838 11.4026 12.7133C11.5247 12.5887 11.5931 12.4211 11.5931 12.2466Z" fill="#04203E"/>
</g>
<defs>
<clipPath id="clip0_889_3646">
<rect width="16" height="16" fill="white"/>
</clipPath>
</defs>
</svg>
