<svg width="19" height="18" viewBox="0 0 19 18" fill="none" xmlns="http://www.w3.org/2000/svg">
<path d="M12.9 17.0003V15.2225C12.9 14.2796 12.5418 13.3752 11.9042 12.7084C11.2665 12.0416 10.4017 11.667 9.5 11.667H4.4C3.49826 11.667 2.63346 12.0416 1.99584 12.7084C1.35821 13.3752 1 14.2796 1 15.2225V17.0003" stroke="#04203E" stroke-width="2" stroke-linecap="round" stroke-linejoin="round"/>
<path d="M6.9498 8.11111C8.82757 8.11111 10.3498 6.51923 10.3498 4.55556C10.3498 2.59188 8.82757 1 6.9498 1C5.07204 1 3.5498 2.59188 3.5498 4.55556C3.5498 6.51923 5.07204 8.11111 6.9498 8.11111Z" stroke="#04203E" stroke-width="2" stroke-linecap="round" stroke-linejoin="round"/>
<path d="M15.4502 5.44434V10.7777" stroke="#04203E" stroke-width="2" stroke-linecap="round" stroke-linejoin="round"/>
<path d="M18.0004 8.11133H12.9004" stroke="#04203E" stroke-width="2" stroke-linecap="round" stroke-linejoin="round"/>
</svg>
