<svg width="40" height="40" viewBox="0 0 40 40" fill="none" xmlns="http://www.w3.org/2000/svg">
<circle cx="20" cy="20" r="20" fill="#FAFCFD"/>
<path d="M32.8205 9C33.5876 9.6826 33.8974 10.9981 33.9784 12.0137C34.1232 14.28 33.5312 16.2495 32.1417 18.0034C30.5902 19.7182 28.8591 20.1522 26.6881 20.2516C25.0396 20.327 23.6964 20.5575 22.4271 21.7329C22.3229 21.8564 22.2172 21.9815 22.1101 22.1096C22.0117 22.2211 21.9133 22.3341 21.812 22.4486C20.8365 23.8907 20.6917 25.3614 20.8075 27.0822C21.1129 28.6071 21.9437 29.7689 23.1233 30.6986C23.1233 30.7981 23.1233 30.8975 23.1233 31C21.2099 30.4455 19.6945 29.3153 18.6625 27.5297C17.7739 25.7592 17.4164 23.9042 17.9302 21.9212C18.5612 20.0964 19.5816 18.5037 21.2692 17.589C22.1651 17.1566 23.0031 16.9471 23.9931 16.9788C24.2783 16.9833 24.2783 16.9833 24.5706 16.9893C24.8673 16.9968 25.1655 17.0044 25.4622 17.0149C27.5232 17.0812 29.4497 16.703 31.0461 15.2504C32.6758 13.4482 32.8698 11.3266 32.8205 9Z" fill="#04203E"/>
<path d="M8.79474 9.15137C8.75566 9.24781 8.71658 9.34424 8.6775 9.4437C8.62106 9.59589 8.56316 9.74808 8.50527 9.90479C8.46764 9.99822 8.42856 10.0916 8.38948 10.1881C7.86264 11.6 7.89159 13.0903 8.44882 14.4886C8.99737 15.5464 9.69644 16.336 10.821 16.6856C11.4521 16.8092 12.0889 16.8755 12.7272 16.9463C14.0255 17.1121 15.1544 17.6018 16.0315 18.6445C17.0186 20.2388 17.311 21.7562 16.9564 23.6337C16.6351 24.6734 16.0735 25.4389 15.3078 26.1788C15.2601 26.1788 15.2123 26.1788 15.1631 26.1788C15.1703 26.0115 15.1761 25.8442 15.1834 25.671C15.2239 24.2364 15.2239 22.9797 14.3468 21.7878C14.1499 21.5075 14.0052 21.1308 13.8605 20.9801C12.817 20.4301 12.1251 20.2825 10.9658 20.0851C9.48223 19.8259 8.15501 19.2608 7.23015 17.98C6.17358 16.3526 5.78569 14.7734 6.11279 12.813C6.40516 11.6603 7.40962 9.15137 8.79474 9.15137Z" fill="#04203E"/>
</svg>
