<svg width="17" height="18" viewBox="0 0 17 18" fill="none" xmlns="http://www.w3.org/2000/svg">
<path d="M11 16.9998V10.263C11 10.0397 10.9122 9.82547 10.7559 9.66755C10.5996 9.50962 10.3877 9.4209 10.1667 9.4209H6.83333C6.61232 9.4209 6.40036 9.50962 6.24408 9.66755C6.0878 9.82547 6 10.0397 6 10.263V16.9998" stroke="#04203E" stroke-width="2" stroke-linecap="round" stroke-linejoin="round"/>
<path d="M1 7.7364C0.999942 7.49141 1.05278 7.24935 1.15482 7.02711C1.25687 6.80488 1.40566 6.60781 1.59083 6.44967L7.42417 1.39788C7.72499 1.14096 8.10613 1 8.5 1C8.89387 1 9.27501 1.14096 9.57583 1.39788L15.4092 6.44967C15.5943 6.60781 15.7431 6.80488 15.8452 7.02711C15.9472 7.24935 16.0001 7.49141 16 7.7364V15.3154C16 15.762 15.8244 16.1904 15.5118 16.5063C15.1993 16.8221 14.7754 16.9996 14.3333 16.9996H2.66667C2.22464 16.9996 1.80072 16.8221 1.48816 16.5063C1.17559 16.1904 1 15.762 1 15.3154V7.7364Z" stroke="#04203E" stroke-width="2" stroke-linecap="round" stroke-linejoin="round"/>
</svg>
