<svg width="13" height="18" viewBox="0 0 13 18" fill="none" xmlns="http://www.w3.org/2000/svg">
<path d="M11.375 0.726562H1.625C0.728812 0.726562 0 1.46863 0 2.38111V16.4447C0 16.6642 0.0856026 16.8746 0.237976 17.0297C0.390349 17.1849 0.597012 17.272 0.8125 17.272H12.1875C12.403 17.272 12.6097 17.1849 12.762 17.0297C12.9144 16.8746 13 16.6642 13 16.4447V2.38111C13 1.46863 12.2712 0.726562 11.375 0.726562ZM11.375 15.6175H1.625V2.38111H11.375V15.6175Z" fill="#FAFCFD"/>
<path d="M3.24942 4.03641H5.68692V5.69096H3.24942V4.03641ZM7.31192 4.03641H9.74942V5.69096H7.31192V4.03641ZM3.24942 7.34551H5.68692V9.00005H3.24942V7.34551ZM7.31192 7.37115H9.74942V9.00005H7.31192V7.37115ZM3.24942 10.6546H5.68692V12.3091H3.24942V10.6546ZM7.31192 10.6546H9.74942V12.3091H7.31192V10.6546Z" fill="#FAFCFD"/>
</svg>
