<svg width="15" height="16" viewBox="0 0 15 16" fill="none" xmlns="http://www.w3.org/2000/svg">
<path d="M7.01135 9.55735L5.95186 8.56797C4.72688 7.43144 3.20229 6.66914 1.55808 6.37108V11.7854C3.59137 12.0503 5.45327 12.8293 7.01135 13.9823C8.56943 12.8293 10.4313 12.0503 12.4646 11.7854V6.37108C10.7819 6.67491 9.27835 7.45395 8.07084 8.56797M12.4646 4.78963C12.971 4.71173 13.4929 4.67278 14.0227 4.67278V13.2422C11.2961 13.2422 8.84988 14.2939 7.01135 16C5.17282 14.2939 2.72664 13.2422 0 13.2422V4.67278C0.529746 4.67278 1.0517 4.71173 1.55808 4.78963C3.65369 5.10904 5.53117 6.05947 7.01135 7.43057C8.49152 6.05947 10.369 5.10904 12.4646 4.78963ZM7.01135 3.1147C7.22169 3.1147 7.40087 3.0368 7.56447 2.88878C7.71248 2.72518 7.79039 2.546 7.79039 2.33566C7.79039 2.12532 7.71248 1.94614 7.56447 1.78254C7.40087 1.64232 7.22169 1.55662 7.01135 1.55662C6.80101 1.55662 6.62183 1.64232 6.45823 1.78254C6.318 1.94614 6.23231 2.13311 6.23231 2.33566C6.23231 2.53821 6.318 2.72518 6.45823 2.88878C6.62183 3.0368 6.8088 3.1147 7.01135 3.1147ZM8.66291 3.98722C8.22489 4.42524 7.6308 4.67132 7.01135 4.67132C6.39189 4.67132 5.79781 4.42524 5.35979 3.98722C4.92176 3.5492 4.67569 2.95512 4.67569 2.33566C4.67569 1.71621 4.92176 1.12212 5.35979 0.684099C5.57667 0.467213 5.83415 0.29517 6.11753 0.177792C6.4009 0.0604137 6.70462 0 7.01135 0C7.31807 0 7.62179 0.0604137 7.90517 0.177792C8.18854 0.29517 8.44602 0.467213 8.66291 0.684099C8.8798 0.900986 9.05184 1.15847 9.16922 1.44184C9.2866 1.72522 9.34701 2.02894 9.34701 2.33566C9.34701 2.64238 9.2866 2.9461 9.16922 3.22948C9.05184 3.51286 8.8798 3.77034 8.66291 3.98722Z" fill="#FAFCFD"/>
</svg>
