<svg width="597" height="506" viewBox="0 0 597 506" fill="none" xmlns="http://www.w3.org/2000/svg">
<g clip-path="url(#clip0_1535_11386)">
<path d="M575.427 413.695H21.4851C9.63843 413.695 0 404.057 0 392.21V325.539H596.912V392.21C596.912 404.057 587.274 413.695 575.427 413.695Z" fill="#E6E6E6"/>
<path d="M370.149 402.543H228.887V503.444H370.149V402.543Z" fill="#E6E6E6"/>
<path d="M378.646 490.699H220.39V503.445H378.646V490.699Z" fill="#E6E6E6"/>
<path d="M596.381 353.686H0V14.7442C0 6.6144 6.6144 0 14.7442 0H581.637C589.767 0 596.381 6.6144 596.381 14.7442V353.686Z" fill="#04203E"/>
<path d="M582.042 15.4004H13.8076V335.099H582.042V15.4004Z" fill="#FAFCFD"/>
<path d="M123.853 205.95C128.202 202.356 133.581 201.687 135.868 204.455C138.154 207.223 136.482 212.38 132.131 215.974C130.412 217.434 128.369 218.461 126.173 218.969L107.553 233.963L100.703 225.075L119.786 211.237C120.7 209.175 122.094 207.362 123.853 205.95Z" fill="#FFB6B6"/>
<path d="M16.2322 239.779C16.2228 239.116 16.229 233.332 20.5111 229.676C25.43 225.476 32.3709 227.176 34.8053 227.772C40.4289 229.15 40.8902 231.562 46.1713 234.041C56.0518 238.678 43.6719 236.305 49.5511 234.817C51.5862 234.303 80.8633 232.272 88.1509 227.787C102.324 219.063 111.982 213.773 111.982 213.773L118.295 226.4C118.295 226.4 109.166 239.093 96.3179 248.497C83.1386 258.143 76.549 262.966 66.5345 264.829C65.6721 264.99 44.4622 268.611 27.3794 255.849C23.4828 252.937 16.3435 247.604 16.2322 239.779Z" fill="#04203E"/>
<path d="M35.8164 207.667C47.9626 207.667 57.809 197.821 57.809 185.674C57.809 173.528 47.9626 163.682 35.8164 163.682C23.6702 163.682 13.8237 173.528 13.8237 185.674C13.8237 197.821 23.6702 207.667 35.8164 207.667Z" fill="#FFB6B6"/>
<path d="M208.055 333.428L185.405 310.244L173.713 322.44L190.588 344.67L207.326 346.584L208.055 333.428Z" fill="#FFB6B6"/>
<path d="M78.7257 289.954C80.0504 290.064 84.2603 290.907 88.2841 288.693C91.0303 287.182 92.4387 284.936 92.9144 284.221C98.8158 275.358 121.467 261.537 141.795 260.686C146.399 260.494 149.429 261.027 152.183 262.463C156.089 264.499 157.648 267.415 162.603 274.246C165.314 277.982 168.314 281.503 171.057 285.215C187.119 306.952 193.208 308.658 192.586 315.626C191.896 323.358 183.557 330.693 178.015 329.847C175.745 329.5 174.866 327.922 171.834 324.727C162.943 315.359 159.264 317.09 152.934 309.915C145.544 301.538 146.511 294.592 142.655 294.323C139.08 294.075 137.56 300 129.926 307.872C126.433 311.473 123.946 313.126 116.368 318.383C86.857 338.856 86.3861 340.295 80.4305 341.927C77.8248 342.642 59.3309 347.712 52.7429 339.643C42.4334 327.017 66.7888 288.962 78.7257 289.954Z" fill="#1F1D1D"/>
<path d="M201.13 338.669C202.796 337.921 204.744 337.046 205.37 335.035C205.794 333.674 205.55 331.996 204.674 330.836C203.663 329.498 202.166 329.322 202.226 329.085C202.318 328.725 205.858 328.866 209.743 330.239C210.477 330.498 213.798 331.712 218.024 335.011C221.409 337.654 220.953 338.184 223.076 339.708C229.593 344.385 235.704 340.699 239.23 345.085C240.591 346.779 241.172 349.182 240.599 351.126C239.449 355.029 233.856 356.372 230.799 357.066C223.438 358.736 217.866 357.373 212.048 356.392C192.261 353.058 181.144 356.095 179.656 351.511C179.374 350.643 179.832 350.717 181.357 344.35C182.863 338.067 182.814 336.341 184.096 335.838C186.027 335.08 187.323 338.526 192.186 339.705C196.495 340.75 200.051 339.153 201.13 338.669Z" fill="#1F1D1D"/>
<path d="M167.787 409.273L162.065 377.371L145.542 380.897L147.022 408.767L159.797 419.75L167.787 409.273Z" fill="#FFB6B6"/>
<path d="M85.1873 300.677C86.2216 301.512 89.2315 304.573 93.8042 305.001C96.9249 305.293 99.3518 304.225 100.147 303.901C110.007 299.881 136.51 301.164 153.809 311.875C157.726 314.301 159.934 316.444 161.407 319.179C163.495 323.056 163.148 326.344 163.413 334.78C163.557 339.394 164.063 343.991 164.248 348.604C165.333 375.609 169.413 380.44 164.985 385.857C160.072 391.866 149.053 393.254 144.943 389.441C143.26 387.879 143.418 386.08 142.703 381.734C140.607 368.99 136.591 368.356 135.382 358.864C133.971 347.783 138.672 342.578 135.632 340.191C132.813 337.977 128.228 342.027 117.492 344.254C112.579 345.273 109.593 345.243 100.37 345.338C64.4551 345.707 63.2575 346.633 57.4126 344.64C54.8554 343.768 36.7055 337.578 35.7851 327.202C34.3448 310.965 75.867 293.153 85.1873 300.677Z" fill="#1F1D1D"/>
<path d="M159.116 409.722C160.914 410.038 163.017 410.408 164.665 409.096C165.78 408.208 166.52 406.682 166.446 405.231C166.36 403.556 165.221 402.569 165.404 402.407C165.683 402.161 168.532 404.265 170.976 407.583C171.437 408.21 173.504 411.079 175.148 416.181C176.465 420.269 175.791 420.452 176.691 422.905C179.457 430.435 186.584 430.816 187.038 436.426C187.214 438.591 186.344 440.906 184.779 442.193C181.635 444.777 176.253 442.748 173.335 441.605C166.306 438.853 162.461 434.596 158.197 430.518C143.697 416.648 132.792 412.918 134.135 408.289C134.389 407.413 134.727 407.731 139.564 403.32C144.339 398.966 145.267 397.51 146.61 397.814C148.633 398.271 147.771 401.85 151.133 405.556C154.112 408.841 157.95 409.516 159.116 409.722Z" fill="#1F1D1D"/>
<path d="M38.8148 189.879C39.6709 186.816 38.5955 185.7 39.6916 184.325C39.6916 184.325 40.1327 183.772 44.076 182.279C42.9126 175.529 43.7837 174.387 43.7837 174.387C44.7877 173.072 46.7989 172.754 48.1681 172.926C51.0639 173.29 51.5765 175.907 53.4294 175.849C55.989 175.768 59.0589 170.644 58.1061 166.203C57.3288 162.581 53.9773 159.89 53.1371 160.357C52.3041 160.82 49.3054 158.779 48.1681 159.188C47.3915 159.467 43.7358 159.096 42.9069 159.48C42.0016 159.9 39.4092 162.515 39.1614 162.186C37.439 159.896 37.4757 159.097 36.4764 158.603C34.7057 157.729 32.7807 159.345 29.4614 160.942C22.6318 164.227 20.632 162.267 17.4774 165.034C15.8839 166.431 15.0293 169.102 13.3853 174.387C11.0861 181.778 9.93659 185.473 11.047 189.002C12.1793 192.6 13.8469 191.817 16.3082 196.894C19.0481 202.545 18.1037 205.83 20.6926 207.124C22.6935 208.124 25.909 207.488 27.1231 205.663C29.2017 202.538 23.8291 198.311 25.6616 193.386C26.7864 190.363 30.2564 188.071 32.3843 188.71C34.7904 189.431 34.9676 193.745 36.4764 193.679C37.7685 193.621 38.6656 190.412 38.8148 189.879Z" fill="#1F1D1D"/>
<path d="M22.1539 210.925C26.6543 205.878 44.9858 211.101 46.7064 219.109C47.4141 222.402 44.8015 223.793 45.5373 227.585C46.6134 233.132 52.7064 232.754 57.229 238.4C63.6497 246.416 57.035 254.252 64.244 267.629C65.7844 270.488 67.0828 272.897 69.7975 275.229C76.0271 280.58 81.8247 278.745 84.9968 283.705C87.3689 287.415 86.3942 291.988 86.1659 293.059C85.2298 297.451 82.6925 298.521 80.9047 302.12C77.9301 308.108 81.298 312.503 81.4893 319.657C81.7285 328.608 76.9719 341.016 67.4592 345.087C56.7721 349.66 43.8826 342.086 37.6454 334.564C33.9235 330.076 32.8432 325.937 31.2149 320.827C23.938 297.989 19.8268 300.055 14.2619 281.952C7.90024 261.257 6.64961 237.011 14.2619 229.339C15.2709 228.322 18.0477 225.972 19.8155 221.739C22.1944 216.044 20.1393 213.183 22.1539 210.925Z" fill="#04203E"/>
<path d="M88.6533 328.39C92.1426 332.823 92.6834 338.217 89.8617 340.437C87.0399 342.657 81.9248 340.863 78.4349 336.427C77.0165 334.675 76.0385 332.608 75.5826 330.4L61.0356 311.429L68.5523 305.695L83.4638 324.199C85.5035 325.161 87.283 326.598 88.6533 328.39Z" fill="#FFB6B6"/>
<path d="M35.3773 230.154C36.0245 230.01 41.6881 228.836 46.1407 232.282C51.2556 236.24 51.0078 243.382 50.9209 245.887C50.7202 251.673 48.4527 252.617 47.1037 258.293C44.5799 268.911 49.3862 278.78 52.0416 284.232C52.9608 286.119 55.9137 291.894 61.7917 298.113C73.2238 310.208 83.4241 316.573 83.4241 316.573L72.4661 326.313C72.4661 326.313 55.0112 320.993 43.1838 310.334C31.0516 299.4 12.3944 260.715 8.52675 251.291C8.19367 250.48 12.9117 263.673 21.9202 244.346C23.975 239.937 27.7399 231.86 35.3773 230.154Z" fill="#04203E"/>
<path d="M315.838 221.082L302.754 214.884C308.12 222.373 312.744 234.07 315.22 243.377C319.411 234.707 326.168 224.099 332.856 217.763L319.028 221.32C327.549 179.56 359.598 149.581 396.298 149.581L396.818 148.072C358.483 148.072 324.538 177.636 315.838 221.082Z" fill="#04203E"/>
<path d="M376.057 284.71H293.389C289.883 284.71 287.03 281.858 287.03 278.351C287.03 274.845 289.883 271.992 293.389 271.992H376.057C379.563 271.992 382.416 274.845 382.416 278.351C382.416 281.858 379.563 284.71 376.057 284.71Z" fill="#04203E"/>
<path d="M486.057 284.71H403.389C399.883 284.71 397.03 281.858 397.03 278.351C397.03 274.845 399.883 271.992 403.389 271.992H486.057C489.563 271.992 492.416 274.845 492.416 278.351C492.416 281.858 489.563 284.71 486.057 284.71Z" fill="#E6E6E6"/>
<path d="M437.118 111.717H356.761C354.735 111.717 353.087 110.069 353.087 108.043C353.087 106.017 354.735 104.369 356.761 104.369H437.118C439.144 104.369 440.792 106.017 440.792 108.043C440.792 110.069 439.144 111.717 437.118 111.717Z" fill="#04203E"/>
<path d="M480.239 150.914H313.641C311.615 150.914 309.966 149.266 309.966 147.24C309.966 145.214 311.615 143.566 313.641 143.566H480.239C482.264 143.566 483.912 145.214 483.912 147.24C483.912 149.266 482.264 150.914 480.239 150.914Z" fill="#04203E"/>
<path d="M36.1211 504.385C36.1211 505.045 36.6511 505.575 37.3112 505.575H559.601C560.261 505.575 560.791 505.045 560.791 504.385C560.791 503.725 560.261 503.195 559.601 503.195H37.3112C36.6511 503.195 36.1211 503.725 36.1211 504.385Z" fill="#04203E"/>
<path d="M164.369 222.296C164.227 222.296 164.086 222.291 163.944 222.282C155.575 221.745 126.939 217.693 109.844 188.134C108.435 185.701 108.712 182.606 110.534 180.436L142.194 142.714C143.489 141.171 145.489 140.283 147.514 140.307C148.914 140.34 152.229 140.694 152.873 143.249C156.676 158.346 172.736 176.096 192.05 178.449C194.008 178.687 195.579 180.434 196.254 183.121C196.78 185.213 196.294 187.369 194.919 189.037L169.557 219.835C168.268 221.399 166.378 222.296 164.369 222.296ZM147.393 141.825C145.845 141.825 144.341 142.518 143.357 143.69L111.697 181.411C110.284 183.095 110.068 185.491 111.158 187.374C127.876 216.281 155.863 220.241 164.042 220.767C165.712 220.879 167.316 220.167 168.385 218.87L193.747 188.072C194.812 186.78 195.189 185.11 194.782 183.491C194.383 181.905 193.408 180.144 191.866 179.955C171.914 177.526 155.326 159.203 151.4 143.62C151.082 142.358 149.168 141.865 147.483 141.825C147.453 141.825 147.423 141.825 147.393 141.825Z" fill="#04203E"/>
<path d="M129.03 189.376L151.855 166.102C153.415 164.512 150.971 162.063 149.409 163.656L126.583 186.929C125.023 188.52 127.467 190.969 129.03 189.376Z" fill="#E6E6E6"/>
<path d="M142.806 195.932C149.106 190.286 154.58 183.748 159.062 176.574C160.246 174.681 157.254 172.942 156.075 174.828C151.741 181.764 146.449 188.028 140.36 193.486C138.698 194.975 141.152 197.415 142.806 195.932Z" fill="#E6E6E6"/>
<path d="M155.222 203.783C160.958 197.43 165.84 190.339 169.684 182.69C170.681 180.706 167.698 178.952 166.697 180.944C162.983 188.334 158.319 195.197 152.776 201.337C151.287 202.986 153.727 205.44 155.222 203.783Z" fill="#E6E6E6"/>
<path d="M145.443 161.886C158.153 161.886 168.456 151.8 168.456 139.358C168.456 126.916 158.153 116.83 145.443 116.83C132.734 116.83 122.431 126.916 122.431 139.358C122.431 151.8 132.734 161.886 145.443 161.886Z" fill="#04203E"/>
<path d="M157.417 150.044C153.878 141.342 150.339 132.641 146.8 123.939C146.311 122.737 144.78 122.694 144.303 123.939C140.806 133.062 138.52 142.581 137.422 152.288C137.235 153.941 139.826 153.927 140.011 152.288C140.441 148.489 141.08 144.72 141.899 140.99C144.815 141.143 147.756 140.816 150.57 140.037C152.02 143.602 153.47 147.167 154.92 150.732C155.54 152.256 158.046 151.59 157.417 150.044ZM142.486 138.43C143.358 134.859 144.404 131.332 145.617 127.86L149.586 137.618C147.262 138.229 144.884 138.5 142.486 138.43Z" fill="#FAFCFD"/>
</g>
<defs>
<clipPath id="clip0_1535_11386">
<rect width="596.912" height="505.575" fill="white"/>
</clipPath>
</defs>
</svg>
