<svg width="28" height="28" viewBox="0 0 28 28" fill="none" xmlns="http://www.w3.org/2000/svg">
<path d="M0 14C0 6.26801 6.26801 0 14 0C21.732 0 28 6.26801 28 14C28 21.732 21.732 28 14 28C6.26801 28 0 21.732 0 14Z" fill="#FAFCFD"/>
<path d="M10.6981 14.1979C10.6981 13.7671 10.4024 13.5098 9.88105 13.5098C9.66825 13.5098 9.52433 13.5307 9.44873 13.5511V14.9347C9.53833 14.9551 9.64809 14.9625 9.79873 14.9625C10.3548 14.9625 10.6981 14.6774 10.6981 14.1979ZM13.9271 13.5234C13.6935 13.5234 13.5423 13.5443 13.4527 13.5653V16.6305C13.5423 16.6515 13.6863 16.6515 13.8167 16.6515C14.7643 16.6583 15.3825 16.13 15.3825 15.0112C15.3898 14.038 14.8264 13.5234 13.9271 13.5234Z" fill="#EF4444"/>
<path d="M20.1141 11.7229H19.7344V9.86893L19.731 9.83379C19.7314 9.75927 19.7054 9.68708 19.6577 9.63031L16.6096 6.10712L16.6074 6.10486C16.5686 6.06243 16.5193 6.03131 16.4646 6.01474L16.4478 6.00907C16.4245 6.00298 16.4006 5.99993 16.3766 6L8.88552 6C8.54336 6 8.2656 6.2817 8.2656 6.62744V11.7229H7.88592C7.39648 11.7229 7 12.1242 7 12.6196L7 17.2831C7 17.778 7.39704 18.1798 7.88592 18.1798H8.2656V21.3726C8.2656 21.7183 8.54336 22 8.88552 22H19.1145C19.4561 22 19.7344 21.7183 19.7344 21.3726V18.1798H20.1141C20.6035 18.1798 21 17.778 21 17.2831V12.6196C21 12.1242 20.603 11.7229 20.1141 11.7229ZM8.88552 6.62744L16.0664 6.62744V9.83776C16.0664 10.0112 16.2053 10.1512 16.3766 10.1512H19.115V11.7229H8.88552V6.62744ZM16.4959 14.9763C16.4959 15.873 16.1734 16.4919 15.7259 16.8739C15.2387 17.2837 14.4973 17.4787 13.5906 17.4787C13.048 17.4787 12.6638 17.4436 12.4023 17.4095V12.8078C12.787 12.7454 13.2882 12.7108 13.8174 12.7108C14.6961 12.7108 15.2662 12.8707 15.7125 13.2113C16.1935 13.5724 16.4959 14.1494 16.4959 14.9763ZM8.41176 17.4305V12.8078C8.73432 12.7522 9.18792 12.7108 9.82632 12.7108C10.472 12.7108 10.9323 12.8361 11.2409 13.086C11.536 13.3224 11.7348 13.7118 11.7348 14.1703C11.7348 14.6294 11.5842 15.0182 11.3092 15.2824C10.9519 15.623 10.4233 15.776 9.80504 15.776C9.66784 15.776 9.54408 15.7692 9.44832 15.7551V17.4305H8.41176ZM19.1145 21.2025H8.88552V18.1798H19.1145V21.2025ZM20.0127 13.6143H18.2336V14.685H19.8957V15.5471H18.2336V17.4305H17.1836V12.7454H20.0127V13.6143Z" fill="#EF4444"/>
</svg>
