<svg width="15" height="18" viewBox="0 0 15 18" fill="none" xmlns="http://www.w3.org/2000/svg">
<path d="M12.375 1H2.625C1.72754 1 1 1.71634 1 2.6V15.4C1 16.2837 1.72754 17 2.625 17H12.375C13.2725 17 14 16.2837 14 15.4V2.6C14 1.71634 13.2725 1 12.375 1Z" stroke="#04203E" stroke-width="2" stroke-linecap="round" stroke-linejoin="round"/>
<path d="M5.0625 16.9998V13.7998H9.9375V16.9998" stroke="#04203E" stroke-width="2" stroke-linecap="round" stroke-linejoin="round"/>
<path d="M4.25 4.2002H4.2575" stroke="#04203E" stroke-width="2" stroke-linecap="round" stroke-linejoin="round"/>
<path d="M10.75 4.2002H10.7575" stroke="#04203E" stroke-width="2" stroke-linecap="round" stroke-linejoin="round"/>
<path d="M7.5 4.2002H7.5075" stroke="#04203E" stroke-width="2" stroke-linecap="round" stroke-linejoin="round"/>
<path d="M7.5 7.40039H7.5075" stroke="#04203E" stroke-width="2" stroke-linecap="round" stroke-linejoin="round"/>
<path d="M7.5 10.5996H7.5075" stroke="#04203E" stroke-width="2" stroke-linecap="round" stroke-linejoin="round"/>
<path d="M10.75 7.40039H10.7575" stroke="#04203E" stroke-width="2" stroke-linecap="round" stroke-linejoin="round"/>
<path d="M10.75 10.5996H10.7575" stroke="#04203E" stroke-width="2" stroke-linecap="round" stroke-linejoin="round"/>
<path d="M4.25 7.40039H4.2575" stroke="#04203E" stroke-width="2" stroke-linecap="round" stroke-linejoin="round"/>
<path d="M4.25 10.5996H4.2575" stroke="#04203E" stroke-width="2" stroke-linecap="round" stroke-linejoin="round"/>
</svg>
