<svg width="20" height="20" viewBox="0 0 20 20" fill="none" xmlns="http://www.w3.org/2000/svg">
<path d="M6.69858 10.1979C6.69858 9.76709 6.4029 9.50977 5.88154 9.50977C5.66874 9.50977 5.52482 9.53074 5.44922 9.55114V10.9347C5.53882 10.9551 5.64858 10.9625 5.79922 10.9625C6.3553 10.9625 6.69858 10.6774 6.69858 10.1979ZM9.92754 9.52337C9.69402 9.52337 9.54282 9.54434 9.45322 9.56531V12.6305C9.54282 12.6515 9.68674 12.6515 9.81722 12.6515C10.7647 12.6583 11.383 12.13 11.383 11.0112C11.3903 10.038 10.8269 9.52337 9.92754 9.52337Z" fill="#EF4444"/>
<path d="M16.1141 7.72291H15.7344V5.86893L15.731 5.83379C15.7314 5.75927 15.7054 5.68708 15.6577 5.63031L12.6096 2.10712L12.6074 2.10486C12.5686 2.06243 12.5193 2.03131 12.4646 2.01474L12.4478 2.00907C12.4245 2.00298 12.4006 1.99993 12.3766 2H4.88552C4.54336 2 4.2656 2.2817 4.2656 2.62744V7.72291H3.88592C3.39648 7.72291 3 8.1242 3 8.61958V13.2831C3 13.778 3.39704 14.1798 3.88592 14.1798H4.2656V17.3726C4.2656 17.7183 4.54336 18 4.88552 18H15.1145C15.4561 18 15.7344 17.7183 15.7344 17.3726V14.1798H16.1141C16.6035 14.1798 17 13.778 17 13.2831V8.61958C17 8.1242 16.603 7.72291 16.1141 7.72291ZM4.88552 2.62744H12.0664V5.83776C12.0664 6.01119 12.2053 6.15119 12.3766 6.15119H15.115V7.72291H4.88552V2.62744ZM12.4959 10.9763C12.4959 11.873 12.1734 12.4919 11.7259 12.8739C11.2387 13.2837 10.4973 13.4787 9.59064 13.4787C9.048 13.4787 8.66384 13.4436 8.40232 13.4095V8.80775C8.78704 8.7454 9.28824 8.71083 9.81744 8.71083C10.6961 8.71083 11.2662 8.87067 11.7125 9.21131C12.1935 9.57235 12.4959 10.1494 12.4959 10.9763ZM4.41176 13.4305V8.80775C4.73432 8.75221 5.18792 8.71083 5.82632 8.71083C6.472 8.71083 6.93232 8.83609 7.24088 9.08605C7.536 9.3224 7.7348 9.71179 7.7348 10.1703C7.7348 10.6294 7.58416 11.0182 7.3092 11.2824C6.95192 11.623 6.42328 11.776 5.80504 11.776C5.66784 11.776 5.54408 11.7692 5.44832 11.7551V13.4305H4.41176ZM15.1145 17.2025H4.88552V14.1798H15.1145V17.2025ZM16.0127 9.6143H14.2336V10.685H15.8957V11.5471H14.2336V13.4305H13.1836V8.7454H16.0127V9.6143Z" fill="#EF4444"/>
</svg>
