<svg width="18" height="12" viewBox="0 0 18 12" fill="none" xmlns="http://www.w3.org/2000/svg">
<path d="M2.6 9.81022C2.6 10.2143 2.76857 10.6019 3.06863 10.8877C3.36869 11.1734 3.77565 11.3339 4.2 11.3339C4.62435 11.3339 5.03131 11.1734 5.33137 10.8877C5.63143 10.6019 5.8 10.2143 5.8 9.81022M2.6 9.81022C2.6 9.40611 2.76857 9.01855 3.06863 8.7328C3.36869 8.44705 3.77565 8.28652 4.2 8.28652C4.62435 8.28652 5.03131 8.44705 5.33137 8.7328C5.63143 9.01855 5.8 9.40611 5.8 9.81022M2.6 9.81022L1 9.81023V1.42982C1 1.22777 1.08429 1.03399 1.23431 0.891111C1.38434 0.748236 1.58783 0.667969 1.8 0.667969H13C14.0609 0.667969 15.0783 1.22983 15.8284 2.22996C16.5786 3.23009 17 4.58656 17 6.00095M5.8 9.81022H12.2M12.2 9.81022C12.2 10.2143 12.3686 10.6019 12.6686 10.8877C12.9687 11.1734 13.3757 11.3339 13.8 11.3339C14.2243 11.3339 14.6313 11.1734 14.9314 10.8877C15.2314 10.6019 15.4 10.2143 15.4 9.81022M12.2 9.81022C12.2 9.40611 12.3686 9.01855 12.6686 8.7328C12.9687 8.44705 13.3757 8.28652 13.8 8.28652C14.2243 8.28652 14.6313 8.44705 14.9314 8.7328C15.2314 9.01855 15.4 9.40611 15.4 9.81022M15.4 9.81022L17 9.81023V6.00095M17 6.00095L13.4 6.00095L12.2 0.667969M1 4.47724H13M5 0.667969V4.47724M9 0.667969V4.47724" stroke="#FAFCFD" stroke-linecap="round" stroke-linejoin="round"/>
</svg>
