<svg width="24" height="18" viewBox="0 0 24 18" fill="none" xmlns="http://www.w3.org/2000/svg">
<path d="M22.3445 7.76841C22.5413 7.67815 22.7082 7.52986 22.8247 7.3419C22.9412 7.15394 23.0022 6.93457 22.9999 6.71097C22.9977 6.48736 22.9325 6.26935 22.8122 6.08393C22.692 5.89852 22.5221 5.75384 22.3236 5.66784L12.9027 1.20612C12.6163 1.07029 12.3051 1 11.9904 1C11.6756 1 11.3644 1.07029 11.078 1.20612L1.6582 5.66327C1.46252 5.75238 1.29605 5.89885 1.17915 6.08477C1.06225 6.27069 1 6.488 1 6.71012C1 6.93225 1.06225 7.14956 1.17915 7.33548C1.29605 7.5214 1.46252 7.66787 1.6582 7.75698L11.078 12.2233C11.3644 12.3591 11.6756 12.4294 11.9904 12.4294C12.3051 12.4294 12.6163 12.3591 12.9027 12.2233L22.3445 7.76841Z" stroke="#FAFCFD" stroke-width="2" stroke-linecap="round" stroke-linejoin="round"/>
<path d="M22.9814 6.71387V13.571" stroke="#FAFCFD" stroke-width="2" stroke-linecap="round" stroke-linejoin="round"/>
<path d="M5.39551 9.57129V13.5713C5.39551 14.4806 6.09034 15.3527 7.32714 15.9957C8.56394 16.6386 10.2414 16.9999 11.9905 16.9999C13.7396 16.9999 15.4171 16.6386 16.6539 15.9957C17.8907 15.3527 18.5855 14.4806 18.5855 13.5713V9.57129" stroke="#FAFCFD" stroke-width="2" stroke-linecap="round" stroke-linejoin="round"/>
</svg>
