<svg width="15" height="18" viewBox="0 0 15 18" fill="none" xmlns="http://www.w3.org/2000/svg">
<path d="M9.93641 1H2.6248C2.19388 1 1.7806 1.16857 1.47589 1.46863C1.17118 1.76869 1 2.17565 1 2.6V15.4C1 15.8243 1.17118 16.2313 1.47589 16.5314C1.7806 16.8314 2.19388 17 2.6248 17H12.3736C12.8045 17 13.2178 16.8314 13.5225 16.5314C13.8272 16.2313 13.9984 15.8243 13.9984 15.4V5L9.93641 1Z" stroke="#04203E" stroke-width="2" stroke-linecap="round" stroke-linejoin="round"/>
<path d="M9.12598 1V4.2C9.12598 4.62435 9.29716 5.03131 9.60187 5.33137C9.90658 5.63143 10.3199 5.8 10.7508 5.8H14.0004" stroke="#04203E" stroke-width="2" stroke-linecap="round" stroke-linejoin="round"/>
<path d="M5.87578 6.60059H4.25098" stroke="#04203E" stroke-width="2" stroke-linecap="round" stroke-linejoin="round"/>
<path d="M10.7502 9.80078H4.25098" stroke="#04203E" stroke-width="2" stroke-linecap="round" stroke-linejoin="round"/>
<path d="M10.7502 13H4.25098" stroke="#04203E" stroke-width="2" stroke-linecap="round" stroke-linejoin="round"/>
</svg>
