<svg width="80" height="80" viewBox="0 0 80 80" fill="none" xmlns="http://www.w3.org/2000/svg">
<rect width="80" height="80" rx="40" fill="url(#paint0_linear_1871_27091)"/>
<path d="M63.8096 20.5C65.2343 21.7101 65.8095 24.0421 65.96 25.8425C66.2288 29.86 65.1294 33.3513 62.549 36.4606C59.6675 39.5005 56.4528 40.2698 52.4208 40.4461C49.3593 40.5797 46.8649 40.9884 44.5075 43.0719C44.314 43.291 44.1178 43.5127 43.9189 43.7397C43.7361 43.9374 43.5533 44.1377 43.3652 44.3408C41.5535 46.8971 41.2847 49.5042 41.4997 52.5548C42.0669 55.2581 43.6098 57.3176 45.8004 58.9658C45.8004 59.1421 45.8004 59.3184 45.8004 59.5C42.247 58.517 39.4327 56.5136 37.5162 53.3482C35.8658 50.2095 35.2019 46.9212 36.1561 43.4058C37.3281 40.171 39.2231 37.3475 42.3572 35.726C44.021 34.9594 45.5773 34.5881 47.4159 34.6442C47.9454 34.6522 47.9454 34.6522 48.4884 34.6629C49.0394 34.6762 49.5931 34.6896 50.1442 34.7083C53.9718 34.8258 57.5494 34.1553 60.5142 31.5803C63.5409 28.3855 63.901 24.6244 63.8096 20.5Z" fill="#FAFCFD"/>
<path d="M19.1897 20.7666C19.1172 20.9376 19.0446 21.1085 18.972 21.2848C18.8672 21.5546 18.7597 21.8244 18.6522 22.1022C18.5823 22.2678 18.5097 22.4335 18.4371 22.6044C17.4587 25.1074 17.5125 27.7492 18.5473 30.2281C19.5661 32.1033 20.8643 33.503 22.9529 34.1228C24.1248 34.3418 25.3075 34.4593 26.4929 34.5849C28.904 34.8787 31.0005 35.7469 32.6294 37.5954C34.4626 40.4215 35.0056 43.1115 34.347 46.4398C33.7503 48.283 32.7074 49.64 31.2855 50.9515C31.1968 50.9515 31.1081 50.9515 31.0167 50.9515C31.0301 50.655 31.0409 50.3585 31.0543 50.0513C31.1296 47.5083 31.1296 45.2805 29.5007 43.1676C29.1351 42.6707 28.8664 42.0029 28.5976 41.7358C26.6596 40.7608 25.3747 40.499 23.2217 40.1491C20.4665 39.6896 18.0017 38.6879 16.2841 36.4174C14.3219 33.5324 13.6015 30.733 14.209 27.2577C14.752 25.2142 16.6174 20.7666 19.1897 20.7666Z" fill="#FAFCFD"/>
<defs>
<linearGradient id="paint0_linear_1871_27091" x1="71" y1="65" x2="2.08617e-08" y2="2" gradientUnits="userSpaceOnUse">
<stop stop-color="#04203E"/>
<stop offset="1" stop-color="#0077FF"/>
</linearGradient>
</defs>
</svg>
